PathFileType	4	(X/Y/Z)	/Users/itak/Documents/Research/Walk-IL/dataset/trc/00454_00167.trc
DataRate	CameraRate	NumFrames	NumMarkers	Units	OrigDataRate	OrigDataStartFrame	OrigNumFrames
100.000000	100.000000	4	53	mm	100.000000	244	489
Frame#	Time	RPSI			LPSI			L3			STRN			T10			C7			CLAV			RBAK			LBAK			LSHO			LUPA			LAEL			LAOL			LWTS			LWPS			LFRA			LIFD			LHPS			LHTS			RSHO			RUPA			RAEL			RAOL			RWTS			RWPS			RFRA			RIFD			RHTS			RHPS			RBHD			LFHD			RFHD			LBHD			LHIP			RHIP			RASI			LASI			LKNE			LTHI			LANK			LTIP			LTOE			LMT1			LMT5			LHEE			RKNE			RTHI			RANK			RTIP			RTOE			RMT1			RMT5			RHEE			
		X1	Y1	Z1	X2	Y2	Z2	X3	Y3	Z3	X4	Y4	Z4	X5	Y5	Z5	X6	Y6	Z6	X7	Y7	Z7	X8	Y8	Z8	X9	Y9	Z9	X10	Y10	Z10	X11	Y11	Z11	X12	Y12	Z12	X13	Y13	Z13	X14	Y14	Z14	X15	Y15	Z15	X16	Y16	Z16	X17	Y17	Z17	X18	Y18	Z18	X19	Y19	Z19	X20	Y20	Z20	X21	Y21	Z21	X22	Y22	Z22	X23	Y23	Z23	X24	Y24	Z24	X25	Y25	Z25	X26	Y26	Z26	X27	Y27	Z27	X28	Y28	Z28	X29	Y29	Z29	X30	Y30	Z30	X31	Y31	Z31	X32	Y32	Z32	X33	Y33	Z33	X34	Y34	Z34	X35	Y35	Z35	X36	Y36	Z36	X37	Y37	Z37	X38	Y38	Z38	X39	Y39	Z39	X40	Y40	Z40	X41	Y41	Z41	X42	Y42	Z42	X43	Y43	Z43	X44	Y44	Z44	X45	Y45	Z45	X46	Y46	Z46	X47	Y47	Z47	X48	Y48	Z48	X49	Y49	Z49	X50	Y50	Z50	X51	Y51	Z51	X52	Y52	Z52	X53	Y53	Z53	

245	2.44	-1051.90966796875	949.6154174804688	-44.58354949951172	-964.933837890625	935.561767578125	-157.0209503173828	-996.7474365234375	1046.699462890625	-48.37069702148438	-715.30859375	1186.382202148438	102.1730728149414	-987.8695068359375	1169.167358398438	-25.85807991027832	-896.4900512695312	1416.469116210938	55.14098358154297	-726.786865234375	1306.061889648438	98.83967590332031	-1008.640014648438	1302.366455078125	101.5964431762695	-890.8712158203125	1385.094116210938	-44.78721237182617	-761.4116821289062	1402.317626953125	-81.66439819335938	-786.3535766601562	1342.895751953125	-209.8005065917969	-881.21875	1179.525024414062	-319.1193542480469	-968.9922485351562	1206.154541015625	-270.1102600097656	-924.4598388671875	977.8721923828125	-318.7796020507812	-966.9085693359375	985.776611328125	-380.4589233398438	-907.7052612304688	1097.665283203125	-350.8448791503906	-950.4092407226562	823.5654907226562	-339.6336669921875	-974.2125854492188	904.5909423828125	-394.2752075195312	-920.8176879882812	900.34814453125	-343.8040466308594	-903.4859008789062	1370.120361328125	223.0927124023438	-953.9965209960938	1304.272216796875	278.7492370605469	-953.2809448242188	1035.009033203125	325.7934875488281	-976.6630249023438	988.703125	279.0450134277344	-734.387451171875	1000.950744628906	307.7101135253906	-764.6841430664062	926.8549194335938	344.4559631347656	-907.8604736328125	999.2203979492188	336.3114929199219	-600.6318969726562	913.9429931640625	308.0785522460938	-643.4594116210938	956.4115600585938	323.5686645507812	-679.4087524414062	894.0221557617188	343.3451843261719	-881.9509887695312	1586.463989257812	144.6887969970703	-691.9853515625	1622.836059570312	70.0609130859375	-755.4385986328125	1625.35400390625	184.6436004638672	-810.0732421875	1584.698608398438	-18.72261810302734	-777.181884765625	836.0962524414062	-162.9249725341797	-1061.739135742188	833.2568359375	127.7512130737305	-937.2071533203125	853.6957397460938	148.0353393554688	-773.4222412109375	863.027587890625	-41.52325057983398	-601.1920166015625	479.400390625	-27.1933479309082	-622.9389038085938	637.2442626953125	-58.38699340820312	-905.7562255859375	200.9141540527344	-192.8609161376953	-694.5546264648438	357.7213439941406	-90.21089172363281	-784.4493408203125	82.94004058837891	-37.5748405456543	-849.057861328125	122.9616622924805	-40.43003845214844	-799.463134765625	117.4288177490234	-140.9420623779297	-964.029052734375	239.3210906982422	-169.4167633056641	-1091.453491210938	442.9259948730469	76.46196746826172	-1051.317749023438	692.0933227539062	146.0089263916016	-1328.191528320312	96.85894775390625	-69.03218078613281	-1162.606811523438	316.1627807617188	45.15728378295898	-1137.068481445312	47.84073638916016	-21.3337574005127	-1162.618408203125	57.01698303222656	-77.25295257568359	-1237.47216796875	43.44677352905273	2.454080820083618	-1355.820922851562	134.1210479736328	-137.7617797851562	
246	2.45	-1030.218383789062	958.4598999023438	-34.10143661499023	-943.5255737304688	944.8887939453125	-146.3770141601562	-975.6912841796875	1055.540161132812	-37.28025054931641	-695.5386352539062	1197.36376953125	109.6348648071289	-968.4631958007812	1177.94384765625	-15.19078731536865	-879.0082397460938	1425.607543945312	63.67404556274414	-708.1611938476562	1316.7841796875	105.9256210327148	-989.8118896484375	1311.174926757812	111.7426071166992	-873.2327880859375	1394.268432617188	-35.36883544921875	-744.1604614257812	1412.932495117188	-72.70600128173828	-770.3815307617188	1357.546142578125	-201.1575622558594	-870.1832885742188	1196.12939453125	-310.130126953125	-956.1341552734375	1223.014526367188	-258.4655456542969	-914.294189453125	993.9967041015625	-309.196533203125	-958.0614013671875	1002.138488769531	-369.9937744140625	-897.6925659179688	1114.49267578125	-341.7023010253906	-942.038330078125	839.757568359375	-329.0442504882812	-966.32568359375	920.8751831054688	-383.4732055664062	-911.8079223632812	916.377685546875	-334.1743774414062	-883.9232177734375	1380.121215820312	231.2035827636719	-933.3289794921875	1314.74169921875	287.9920959472656	-930.5001220703125	1047.109741210938	335.9925842285156	-954.6378784179688	999.5223388671875	290.6948547363281	-711.534423828125	1019.629089355469	310.5238037109375	-737.7305297851562	944.7271118164062	349.0921630859375	-883.6162109375	1012.933837890625	345.1662902832031	-574.5069580078125	937.9647827148438	306.2619018554688	-618.4313354492188	978.833740234375	323.5239562988281	-651.1538696289062	915.1840209960938	345.1325073242188	-863.585205078125	1596.257080078125	152.2246704101562	-673.456787109375	1631.564208984375	77.40745544433594	-736.8399658203125	1634.438354492188	192.0081481933594	-791.8380737304688	1594.115600585938	-11.35202217102051	-755.8656616210938	845.97216796875	-151.3968353271484	-1041.9208984375	842.4765014648438	137.3855285644531	-916.6537475585938	862.0330810546875	158.1255645751953	-752.9795532226562	872.3643188476562	-30.54710960388184	-581.4674072265625	486.922119140625	-13.53228569030762	-604.1251831054688	646.019775390625	-45.08673095703125	-866.517333984375	182.95166015625	-168.6885528564453	-666.8457641601562	357.6219177246094	-72.54951477050781	-737.3103637695312	80.97130584716797	-9.207253456115723	-804.8441772460938	115.370361328125	-13.57795238494873	-754.6637573242188	109.7350234985352	-113.7578811645508	-927.4880981445312	217.8894958496094	-146.8007965087891	-1082.337280273438	454.0177612304688	82.91651153564453	-1034.66748046875	701.4345092773438	154.8962860107422	-1322.81005859375	106.6767807006836	-63.30067443847656	-1155.140380859375	327.9320983886719	52.14993286132812	-1136.948608398438	47.25623321533203	-20.80618476867676	-1160.546997070312	58.23369979858398	-75.10588073730469	-1235.381713867188	44.36000442504883	4.154346466064453	-1347.604858398438	148.9183502197266	-129.9791412353516	
247	2.46	-1008.507080078125	967.2975463867188	-23.43512535095215	-922.1967163085938	954.1508178710938	-135.5857391357422	-954.8043823242188	1064.338623046875	-26.33609771728516	-675.6346435546875	1208.153076171875	117.1962051391602	-948.8417358398438	1186.704345703125	-4.736854553222656	-861.2589721679688	1434.510375976562	72.06955718994141	-689.4775390625	1327.309814453125	113.0826950073242	-970.7871704101562	1319.870727539062	121.6660842895508	-855.23583984375	1403.220947265625	-26.19393920898438	-726.5184326171875	1423.160034179688	-63.78743743896484	-753.6533813476562	1371.26318359375	-192.4292755126953	-857.8062744140625	1211.308349609375	-300.6746520996094	-942.0494995117188	1238.319213867188	-246.6041107177734	-902.3694458007812	1008.504272460938	-298.9079895019531	-947.2831420898438	1016.717834472656	-358.9640502929688	-886.0996704101562	1129.770385742188	-332.0110778808594	-931.60302734375	854.2337036132812	-317.4903869628906	-956.28173828125	935.2978515625	-371.9336547851562	-900.7982177734375	930.7391357421875	-323.6299438476562	-864.3279418945312	1389.838623046875	239.1827697753906	-912.8048095703125	1325.045166015625	297.0199584960938	-908.6387329101562	1058.798583984375	346.1004333496094	-933.647216796875	1010.196960449219	302.1422119140625	-690.0526123046875	1036.23095703125	313.5276794433594	-712.8218994140625	960.8985595703125	353.673828125	-860.649169921875	1025.906616210938	353.9211120605469	-551.067626953125	958.6292114257812	304.4228820800781	-595.426025390625	998.3111572265625	323.5901794433594	-625.4678955078125	933.8650512695312	346.8482666015625	-845.1329956054688	1605.721313476562	159.7297668457031	-654.8551025390625	1639.992797851562	84.74819946289062	-718.1690673828125	1643.202270507812	199.3608093261719	-773.5350341796875	1603.255981445312	-3.989742517471313	-734.9041748046875	855.3123779296875	-139.8881378173828	-1021.845092773438	851.7277221679688	147.3930969238281	-895.8366088867188	870.6021728515625	168.4644317626953	-732.49462890625	881.4220581054688	-19.66688537597656	-563.031005859375	493.0405578613281	-0.899278461933136	-586.2911376953125	653.2957763671875	-32.66398620605469	-826.4490356445312	164.8863830566406	-144.2793884277344	-639.7569580078125	356.7343444824219	-55.48559188842773	-690.9298095703125	79.99789428710938	19.26753425598145	-760.8787841796875	108.5927581787109	13.39068412780762	-709.962158203125	102.508171081543	-86.31296539306641	-889.8771362304688	196.2407989501953	-124.0574722290039	-1071.531127929688	464.9866638183594	90.48042297363281	-1017.339782714844	710.834716796875	164.3952941894531	-1316.218994140625	117.3509368896484	-56.94841384887695	-1146.107543945312	339.7191772460938	60.10133743286133	-1136.31884765625	46.42607498168945	-19.8626537322998	-1157.88134765625	59.96733856201172	-72.44120025634766	-1232.745971679688	46.13375091552734	6.375739097595215	-1337.868774414062	164.2912750244141	-121.4529800415039	
248	2.47	-986.880126953125	976.0106811523438	-12.62086582183838	-901.0084838867188	963.1361694335938	-124.6684265136719	-934.16162109375	1072.880737304688	-15.56575393676758	-655.6599731445312	1218.503540039062	124.9140701293945	-929.0916748046875	1195.224853515625	5.475150585174561	-843.264404296875	1442.958374023438	80.31031799316406	-670.76025390625	1337.39892578125	120.3481597900391	-951.6171875	1328.234497070312	131.2963562011719	-836.9493408203125	1411.711669921875	-17.2856330871582	-708.5607299804688	1432.739135742188	-54.97937393188477	-736.2816772460938	1383.693115234375	-183.7157135009766	-844.0935668945312	1224.7138671875	-290.9426879882812	-926.8275146484375	1251.759521484375	-234.8034362792969	-888.7173461914062	1021.121398925781	-288.1277465820312	-934.5384521484375	1029.236328125	-347.6322326660156	-872.9226684570312	1143.162231445312	-321.9679565429688	-919.1142578125	866.7341918945312	-305.2190551757812	-944.0279541015625	947.5786743164062	-359.9314270019531	-887.7919311523438	943.1568603515625	-312.3973083496094	-844.7994384765625	1399.097412109375	247.0340118408203	-892.5745849609375	1334.980712890625	305.7843322753906	-887.767333984375	1069.785034179688	356.0702819824219	-913.7142333984375	1020.473999023438	313.2761535644531	-669.805419921875	1050.541137695312	316.9244079589844	-689.8660278320312	975.0269165039062	358.3467407226562	-838.9873046875	1037.822998046875	362.5715026855469	-529.9922485351562	975.7131958007812	302.8507690429688	-574.1932983398438	1014.610656738281	324.0498657226562	-602.1396484375	949.716064453125	348.7095336914062	-826.6287841796875	1614.62646484375	167.2258911132812	-636.2296142578125	1647.969848632812	92.12500762939453	-699.4778442382812	1651.4560546875	206.7424774169922	-755.1929931640625	1611.935668945312	3.396018981933594	-714.3287963867188	863.8910522460938	-128.3933715820312	-1001.624389648438	860.7920532226562	157.7738342285156	-874.9274291992188	879.1861572265625	179.0635681152344	-712.05322265625	889.97119140625	-8.825119018554688	-545.883056640625	497.687744140625	10.77252578735352	-569.4483032226562	658.9215087890625	-21.14942169189453	-785.7913208007812	147.1084594726562	-119.7609634399414	-613.3697509765625	355.1155395507812	-38.98491287231445	-645.6513061523438	80.05210876464844	47.63016510009766	-717.5016479492188	102.7708129882812	40.27046203613281	-665.6604614257812	95.928466796875	-58.78784561157227	-851.443115234375	174.8064270019531	-101.2902297973633	-1058.891967773438	475.4453125	99.05670166015625	-999.3295288085938	720.0015869140625	174.4493255615234	-1308.357788085938	128.8894805908203	-50.01911163330078	-1135.38037109375	351.1549987792969	68.84233093261719	-1134.89697265625	45.37835311889648	-18.28693962097168	-1154.443969726562	62.4395866394043	-69.11585235595703	-1229.39306640625	49.09784317016602	9.254926681518555	-1326.765991210938	180.0028381347656	-112.3516006469727	
